<svg width="60" height="60" viewBox="0 0 60 60" fill="none" xmlns="http://www.w3.org/2000/svg">
<path d="M30 22.1895C25.6993 22.1895 22.1895 25.6992 22.1895 30C22.1895 34.3008 25.6993 37.8105 30 37.8105C34.3008 37.8105 37.8106 34.3008 37.8106 30C37.8106 25.6992 34.3008 22.1895 30 22.1895ZM53.4258 30C53.4258 26.7656 53.4551 23.5605 53.2735 20.332C53.0919 16.582 52.2364 13.2539 49.4942 10.5117C46.7461 7.76367 43.4239 6.91407 39.6739 6.73243C36.4395 6.55078 33.2344 6.58008 30.0059 6.58008C26.7715 6.58008 23.5664 6.55078 20.3379 6.73243C16.5879 6.91407 13.2598 7.76953 10.5176 10.5117C7.76957 13.2598 6.91996 16.582 6.73832 20.332C6.55667 23.5664 6.58597 26.7715 6.58597 30C6.58597 33.2285 6.55667 36.4395 6.73832 39.668C6.91996 43.418 7.77543 46.7461 10.5176 49.4883C13.2657 52.2363 16.5879 53.0859 20.3379 53.2676C23.5723 53.4492 26.7774 53.4199 30.0059 53.4199C33.2403 53.4199 36.4454 53.4492 39.6739 53.2676C43.4239 53.0859 46.752 52.2305 49.4942 49.4883C52.2422 46.7402 53.0919 43.418 53.2735 39.668C53.461 36.4395 53.4258 33.2344 53.4258 30ZM30 42.0176C23.3496 42.0176 17.9825 36.6504 17.9825 30C17.9825 23.3496 23.3496 17.9824 30 17.9824C36.6504 17.9824 42.0176 23.3496 42.0176 30C42.0176 36.6504 36.6504 42.0176 30 42.0176ZM42.5098 20.2969C40.9571 20.2969 39.7032 19.043 39.7032 17.4902C39.7032 15.9375 40.9571 14.6836 42.5098 14.6836C44.0625 14.6836 45.3165 15.9375 45.3165 17.4902C45.3169 17.8589 45.2446 18.2241 45.1038 18.5648C44.9629 18.9056 44.7562 19.2151 44.4954 19.4759C44.2347 19.7366 43.9251 19.9433 43.5844 20.0842C43.2437 20.2251 42.8785 20.2973 42.5098 20.2969Z" fill="#424242"/>
</svg>
