<svg width="50" height="50" viewBox="0 0 50 50" fill="none" xmlns="http://www.w3.org/2000/svg">
<path fill-rule="evenodd" clip-rule="evenodd" d="M33.3332 18.75C33.3332 20.9601 32.4552 23.0797 30.8924 24.6425C29.3296 26.2053 27.21 27.0833 24.9998 27.0833C22.7897 27.0833 20.6701 26.2053 19.1073 24.6425C17.5445 23.0797 16.6665 20.9601 16.6665 18.75C16.6665 16.5398 17.5445 14.4202 19.1073 12.8574C20.6701 11.2946 22.7897 10.4166 24.9998 10.4166C27.21 10.4166 29.3296 11.2946 30.8924 12.8574C32.4552 14.4202 33.3332 16.5398 33.3332 18.75V18.75ZM29.1665 18.75C29.1665 19.855 28.7275 20.9148 27.9461 21.6962C27.1647 22.4776 26.1049 22.9166 24.9998 22.9166C23.8948 22.9166 22.835 22.4776 22.0536 21.6962C21.2722 20.9148 20.8332 19.855 20.8332 18.75C20.8332 17.6449 21.2722 16.5851 22.0536 15.8037C22.835 15.0223 23.8948 14.5833 24.9998 14.5833C26.1049 14.5833 27.1647 15.0223 27.9461 15.8037C28.7275 16.5851 29.1665 17.6449 29.1665 18.75V18.75Z" fill="#424242"/>
<path fill-rule="evenodd" clip-rule="evenodd" d="M24.9999 2.08331C12.3437 2.08331 2.08325 12.3437 2.08325 25C2.08325 37.6562 12.3437 47.9166 24.9999 47.9166C37.6562 47.9166 47.9166 37.6562 47.9166 25C47.9166 12.3437 37.6562 2.08331 24.9999 2.08331ZM6.24992 25C6.24992 29.3541 7.73533 33.3625 10.2249 36.5458C11.9733 34.2498 14.2289 32.389 16.8154 31.109C19.4019 29.8289 22.2494 29.1641 25.1353 29.1666C27.9839 29.1639 30.7956 29.8115 33.356 31.0599C35.9165 32.3084 38.1582 34.1248 39.9103 36.3708C41.7154 34.0033 42.9308 31.24 43.4559 28.3095C43.9811 25.3791 43.8008 22.3657 42.9301 19.5187C42.0594 16.6717 40.5233 14.073 38.4488 11.9376C36.3744 9.80212 33.8213 8.19135 31.0007 7.23854C28.1802 6.28573 25.1732 6.01825 22.2288 6.45826C19.2843 6.89826 16.487 8.03309 14.0682 9.76884C11.6494 11.5046 9.67869 13.7914 8.31915 16.44C6.9596 19.0886 6.25029 22.0228 6.24992 25V25ZM24.9999 43.75C20.6956 43.7564 16.5213 42.2757 13.1833 39.5583C14.5269 37.6348 16.3152 36.0644 18.3962 34.9806C20.4771 33.8968 22.7891 33.3316 25.1353 33.3333C27.4523 33.3315 29.7363 33.8824 31.7977 34.9404C33.859 35.9985 35.6382 37.533 36.9874 39.4166C33.6235 42.2223 29.3803 43.7561 24.9999 43.75V43.75Z" fill="#424242"/>
</svg>
